<svg xmlns="http://www.w3.org/2000/svg" id="Capa_1" height="512" viewBox="0 0 512 512" width="512"><g><circle cx="296" cy="299" r="10"></circle><circle cx="256" cy="279" r="10"></circle><circle cx="256" cy="319" r="10"></circle><circle cx="256" cy="359" r="10"></circle><circle cx="216" cy="299" r="10"></circle><path d="m191.005 363.88c18.583 29.097 41.666 45.12 64.995 45.12s46.412-16.023 64.995-45.12c15.19-23.782 25.005-53.175 25.005-74.88 0-21.659-9.942-38.373-28.752-48.335-8.491-4.497-18.703-7.664-30.832-9.554 10.3-8.61 19.584-19.784 19.584-32.111 0-5.523-4.478-10-10-10s-10 4.477-10 10c0 6.155-9.42 15.064-20 22.394v-22.394c0-5.523-4.478-10-10-10-5.523 0-10 4.477-10 10v22.394c-10.581-7.331-20-16.24-20-22.394 0-5.523-4.477-10-10-10s-10 4.477-10 10c0 12.327 9.284 23.501 19.584 32.111-12.129 1.89-22.341 5.057-30.832 9.554-18.81 9.962-28.752 26.676-28.752 48.335 0 21.705 9.815 51.098 25.005 74.88zm13.108-105.54c11.695-6.194 29.139-9.336 51.849-9.34.009 0 .019.002.028.002.003 0 .006-.001.009-.001s.006.001.009.001c.009 0 .019-.002.029-.002 22.711.003 40.155 3.146 51.85 9.34 12.357 6.544 18.113 16.287 18.113 30.66 0 17.877-8.785 43.643-21.86 64.115-14.566 22.805-32.113 35.885-48.14 35.885s-33.574-13.08-48.14-35.885c-13.075-20.472-21.86-46.238-21.86-64.115 0-14.373 5.756-24.116 18.113-30.66z"></path><ellipse cx="256.001" cy="10.001" rx="10" ry="10" transform="matrix(.987 -.16 .16 .987 1.704 41.136)"></ellipse><path d="m462 0h-160.999c-5.523 0-10 4.477-10 10s4.477 10 10 10h160.999c16.542 0 30 13.458 30 30v36c-9.965 0-56.936 0-66 0v-36c0-5.522-4.478-10-10-10s-10 4.478-10 10v36h-60v-36c0-5.522-4.478-10-10-10s-10 4.478-10 10v36h-60v-36c0-5.522-4.478-10-10-10-5.523 0-10 4.478-10 10v36h-60v-36c0-5.522-4.477-10-10-10s-10 4.478-10 10v36h-60v-36c0-5.522-4.478-10-10-10s-10 4.478-10 10v36c-9.071 0-56.018 0-66 0v-36c0-16.542 13.458-30 30-30h161.001c5.522 0 10-4.477 10-10s-4.478-10-10-10h-161.001c-27.57 0-50 22.43-50 50v46c0 5.522 4.477 10 10 10h36.936c42.498 431.678 35.012 355.603 37.314 378.983 1.536 15.402 14.369 27.017 29.85 27.017h283.8c15.48 0 28.314-11.615 29.852-27.029.852-8.65 35.699-362.591 37.312-378.971h36.936c5.522 0 10-4.478 10-10v-46c0-27.57-22.43-50-50-50zm-388.764 169h365.528l-25.598 260h-314.331zm324.664 323h-283.8c-5.16 0-9.437-3.87-9.947-8.99l-3.349-34.01h310.393l-3.347 33.997c-.513 5.133-4.79 9.003-9.95 9.003zm42.833-343h-369.466l-4.234-43h377.934z"></path></g></svg>